<?xml version="1.0" encoding="UTF-8"?>
<svg xmlns="http://www.w3.org/2000/svg" xmlns:xlink="http://www.w3.org/1999/xlink" width="256px" height="256px" viewBox="0 0 256 255" version="1.1">
<g>
<path style="stroke:none;fill-rule:nonzero;fill:#00b3b3;fill-opacity:1;" d="M 138.429688 255.050781 L 117.570312 255.050781 C 109.671875 255.050781 103.253906 248.65625 103.253906 240.792969 L 103.253906 215.488281 C 95.488281 213.324219 88.054688 210.144531 81.109375 206.015625 L 64.722656 222.207031 C 62.027344 224.863281 58.4375 226.335938 54.65625 226.335938 C 50.804688 226.335938 47.1875 224.828125 44.488281 222.140625 L 29.777344 207.394531 C 24.21875 201.820312 24.25 192.773438 29.84375 187.234375 L 46.957031 170.324219 C 43.894531 164.554688 41.425781 158.488281 39.683594 152.230469 L 14.3125 152.230469 C 6.417969 152.195312 0 145.804688 0 137.9375 L 0 117.160156 C 0 109.292969 6.417969 102.902344 14.3125 102.902344 L 39.714844 102.902344 C 41.886719 95.167969 45.078125 87.792969 49.226562 80.84375 L 30.371094 61.898438 C 24.808594 56.324219 24.84375 47.28125 30.46875 41.742188 L 45.277344 27.089844 C 47.976562 24.433594 51.527344 22.960938 55.347656 22.960938 C 59.195312 22.960938 62.816406 24.46875 65.511719 27.15625 L 85.09375 46.820312 C 90.882812 43.738281 97.003906 41.316406 103.289062 39.578125 L 103.289062 14.308594 C 103.289062 6.441406 109.703125 0.0507812 117.601562 0.0507812 L 138.464844 0.0507812 C 146.359375 0.0507812 152.777344 6.441406 152.777344 14.308594 L 152.777344 39.609375 C 159.292969 41.414062 165.609375 43.96875 171.597656 47.214844 L 191.34375 27.710938 C 194.039062 25.058594 197.59375 23.582031 201.410156 23.582031 C 205.261719 23.582031 208.878906 25.089844 211.578125 27.777344 L 226.285156 42.527344 C 228.984375 45.214844 230.433594 48.820312 230.433594 52.621094 C 230.433594 56.425781 228.917969 59.996094 226.222656 62.683594 L 207.234375 81.464844 C 211.214844 88.21875 214.277344 95.429688 216.382812 102.933594 L 241.785156 102.933594 C 249.683594 102.933594 256.097656 109.324219 256.097656 117.191406 L 256.097656 137.9375 C 256.097656 145.804688 249.683594 152.195312 241.785156 152.195312 L 216.382812 152.195312 C 214.574219 158.6875 212.007812 164.980469 208.75 170.945312 L 225.726562 187.988281 C 228.425781 190.675781 229.875 194.28125 229.875 198.082031 C 229.875 201.886719 228.359375 205.457031 225.660156 208.144531 L 210.855469 222.796875 C 208.15625 225.453125 204.601562 226.925781 200.785156 226.925781 C 196.9375 226.925781 193.316406 225.417969 190.617188 222.730469 L 174.394531 206.441406 C 167.617188 210.40625 160.410156 213.457031 152.875 215.554688 L 152.875 240.855469 C 152.746094 248.65625 146.328125 255.050781 138.429688 255.050781 Z M 80.15625 197.789062 L 82.359375 199.164062 C 90.09375 204.050781 98.484375 207.65625 107.304688 209.851562 L 109.769531 210.472656 L 109.769531 240.792969 C 109.769531 245.085938 113.257812 248.558594 117.570312 248.558594 L 138.429688 248.558594 C 142.742188 248.558594 146.230469 245.085938 146.230469 240.792969 L 146.230469 210.472656 L 148.695312 209.851562 C 157.285156 207.71875 165.480469 204.246094 173.046875 199.527344 L 175.25 198.148438 L 195.125 218.109375 C 196.605469 219.585938 198.546875 220.40625 200.652344 220.40625 C 202.726562 220.40625 204.667969 219.617188 206.148438 218.175781 L 220.957031 203.523438 C 222.4375 202.082031 223.226562 200.117188 223.257812 198.050781 C 223.257812 195.953125 222.46875 194.019531 221.023438 192.542969 L 200.554688 172.027344 L 201.804688 169.894531 C 205.753906 163.046875 208.75 155.769531 210.625 148.199219 L 211.25 145.738281 L 241.6875 145.738281 C 245.996094 145.738281 249.484375 142.265625 249.484375 137.972656 L 249.484375 117.191406 C 249.484375 112.898438 245.996094 109.425781 241.6875 109.425781 L 211.25 109.425781 L 210.625 106.964844 C 208.484375 98.410156 204.996094 90.21875 200.257812 82.679688 L 198.878906 80.480469 L 221.515625 58.097656 C 222.996094 56.652344 223.785156 54.6875 223.820312 52.621094 C 223.820312 50.523438 223.03125 48.589844 221.582031 47.117188 L 206.875 32.367188 C 205.394531 30.890625 203.453125 30.074219 201.34375 30.074219 C 199.273438 30.074219 197.332031 30.859375 195.851562 32.300781 L 172.617188 55.277344 L 170.480469 54.03125 C 163.636719 50.097656 156.296875 47.148438 148.699219 45.246094 L 146.230469 44.625 L 146.230469 14.308594 C 146.230469 10.011719 142.742188 6.539062 138.429688 6.539062 L 117.570312 6.539062 C 113.257812 6.539062 109.769531 10.011719 109.769531 14.308594 L 109.769531 44.625 L 107.304688 45.246094 C 99.898438 47.082031 92.792969 49.933594 86.078125 53.703125 L 83.90625 54.917969 L 60.875 31.742188 C 59.394531 30.269531 57.453125 29.449219 55.347656 29.449219 C 53.273438 29.449219 51.332031 30.234375 49.851562 31.679688 L 35.042969 46.328125 C 31.984375 49.34375 31.984375 54.261719 35.011719 57.308594 L 57.519531 79.890625 L 56.136719 82.089844 C 51.234375 89.789062 47.613281 98.148438 45.410156 106.898438 L 44.785156 109.359375 L 14.3125 109.359375 C 10.003906 109.359375 6.515625 112.832031 6.515625 117.125 L 6.515625 137.9375 C 6.515625 142.234375 10.003906 145.707031 14.3125 145.707031 L 44.75 145.707031 L 45.375 148.164062 C 47.21875 155.539062 50.082031 162.621094 53.867188 169.273438 L 55.082031 171.4375 L 34.453125 191.824219 C 31.390625 194.839844 31.390625 199.753906 34.417969 202.804688 L 49.128906 217.554688 C 50.609375 219.027344 52.550781 219.847656 54.65625 219.847656 C 56.726562 219.847656 58.667969 219.0625 60.148438 217.617188 Z M 80.15625 197.789062 "/>
<path style="stroke:none;fill-rule:nonzero;fill:#00b3b3;fill-opacity:1;" d="M 128 176.15625 C 101.082031 176.15625 79.167969 154.328125 79.167969 127.515625 C 79.167969 100.707031 101.082031 78.910156 128 78.910156 C 154.917969 78.910156 176.832031 100.738281 176.832031 127.550781 C 176.832031 154.359375 154.917969 176.15625 128 176.15625 Z M 128 85.398438 C 104.671875 85.398438 85.683594 104.3125 85.683594 127.550781 C 85.683594 150.789062 104.671875 169.667969 128 169.667969 C 151.328125 169.667969 170.316406 150.753906 170.316406 127.515625 C 170.316406 104.277344 151.328125 85.398438 128 85.398438 Z M 128 85.398438 "/>
</g>
</svg>
